<?xml version="1.0" encoding="utf-8"?>
<!-- Generator: Adobe Illustrator 16.0.0, SVG Export Plug-In . SVG Version: 6.00 Build 0)  -->
<!DOCTYPE svg PUBLIC "-//W3C//DTD SVG 1.1//EN" "http://www.w3.org/Graphics/SVG/1.1/DTD/svg11.dtd">
<svg version="1.1" id="Layer_1" xmlns="http://www.w3.org/2000/svg" xmlns:xlink="http://www.w3.org/1999/xlink" x="0px" y="0px"
	 width="612px" height="792px" viewBox="0 0 612 792" enable-background="new 0 0 612 792" xml:space="preserve">
<g id="Layer_5">
	<g>
		<path fill="#428BCA" d="M224.4,550.36h51.17V462.81c-22.61,15.811-37.23,27.37-51.17,41.99V550.36z"/>
		<path fill="#428BCA" d="M418.88,308.62c-51.68,14.28-99.62,33.66-143.14,55.25V256.26c0,0-51.17,0-51.17,39.95
			c0,23.46,0,69.02,0,95.2C96.22,466.04,17.85,550.19,17.85,550.19h130.56c0,0,99.11-107.44,270.64-195.16l0,0v-46.41H418.88z"/>
		<path fill="#428BCA" d="M594.15,284.31c-35.7,0-70.21,3.06-103.7,8.5v-79.05c0,0-61.03,0-61.03,39.95c0,53.89,0,296.48,0,296.48
			h61.03V321.71C523.09,307.94,557.77,295.19,594.15,284.31z"/>
	</g>
</g>
</svg>
