<?xml version="1.0" encoding="utf-8"?>
<!-- Generator: Adobe Illustrator 17.1.0, SVG Export Plug-In . SVG Version: 6.00 Build 0)  -->
<!DOCTYPE svg PUBLIC "-//W3C//DTD SVG 1.1//EN" "http://www.w3.org/Graphics/SVG/1.1/DTD/svg11.dtd">
<svg version="1.1" xmlns="http://www.w3.org/2000/svg" xmlns:xlink="http://www.w3.org/1999/xlink" x="0px" y="0px"
	 viewBox="0 0 324.3 190.4" enable-background="new 0 0 324.3 190.4" xml:space="preserve">
<g id="Layer_2" display="none">
	<rect y="0" display="inline" fill="#212121" width="324.3" height="190.4"/>
</g>
<g id="Layer_5">
	<g>
		<path fill="#FFFFFF" d="M116.2,189.3H145V140c-12.7,8.9-21,15.4-28.8,23.6V189.3z"/>
		<path fill="#FFFFFF" d="M225.7,53.3c-29.1,8-56.1,18.9-80.6,31.1V23.9c0,0-28.8,0-28.8,22.5c0,13.2,0,38.9,0,53.6
			C44,141.9,0,189.3,0,189.3h73.4c0,0,55.8-60.5,152.2-109.8l0,0V53.3z"/>
		<path fill="#FFFFFF" d="M324.3,39.6c-20.1,0-39.5,1.7-58.3,4.8V0c0,0-34.3,0-34.3,22.5c0,30.4,0,166.8,0,166.8H266V60.7
			C284.3,53,303.8,45.8,324.3,39.6z"/>
	</g>
</g>
</svg>
