<?xml version="1.0" encoding="utf-8"?>
<!-- Generator: Adobe Illustrator 16.0.0, SVG Export Plug-In . SVG Version: 6.00 Build 0)  -->
<!DOCTYPE svg PUBLIC "-//W3C//DTD SVG 1.1//EN" "http://www.w3.org/Graphics/SVG/1.1/DTD/svg11.dtd">
<svg version="1.1" id="Layer_1" xmlns="http://www.w3.org/2000/svg" xmlns:xlink="http://www.w3.org/1999/xlink" x="0px" y="0px"
	 width="612px" height="792px" viewBox="0 0 612 792" enable-background="new 0 0 612 792" xml:space="preserve">
<g id="Layer_2" display="none">
	<rect y="216.344" display="inline" fill="#212121" width="612" height="359.312"/>
</g>
<g id="Layer_5">
	<g>
		<path fill="#428BCA" d="M219.286,573.58h54.35v-93.036c-23.967,16.796-39.63,29.062-54.35,44.536V573.58z"/>
		<path fill="#428BCA" d="M425.928,316.929c-54.916,15.097-105.868,35.667-152.104,58.69V261.447c0,0-54.35,0-54.35,42.46
			c0,24.911,0,73.41,0,101.151C83.034,484.13,0,573.58,0,573.58h138.516c0,0,105.303-114.172,287.223-207.208l0,0v-49.443H425.928z"
			/>
		<path fill="#428BCA" d="M612,291.075c-37.932,0-74.542,3.208-110.021,9.059v-83.789c0,0-64.729,0-64.729,42.46
			c0,57.369,0,314.775,0,314.775h64.729V330.894C536.515,316.363,573.313,302.775,612,291.075z"/>
	</g>
</g>
</svg>
