<?xml version="1.0" encoding="utf-8"?>
<!-- Generator: Adobe Illustrator 16.0.0, SVG Export Plug-In . SVG Version: 6.00 Build 0)  -->
<!DOCTYPE svg PUBLIC "-//W3C//DTD SVG 1.1//EN" "http://www.w3.org/Graphics/SVG/1.1/DTD/svg11.dtd">
<svg version="1.1" id="Layer_1" xmlns="http://www.w3.org/2000/svg" xmlns:xlink="http://www.w3.org/1999/xlink" x="0px" y="0px"
	 width="1280px" height="800px" viewBox="0 0 1280 800" enable-background="new 0 0 1280 800" xml:space="preserve">
<path fill="#99CCFF" d="M249.697,158.095c0-13.481-10.383-24.41-23.122-24.41c-0.887,0-1.788,0.058-2.647,0.161
	c-5.846-16.165-20.854-27.688-38.433-27.688c-15.132,0-28.355,8.551-35.471,21.246c-1.093-0.331-2.095-0.511-3.296-0.511
	c-6.564,0-11.729,5.322-11.729,11.887c0,0.022,0,0.043,0,0.065c-11,0.824-18.968,10.265-18.968,21.797
	c0,11.376,7.968,20.719,17.968,21.763V183h96v-0.741C241,180.584,249.697,170.407,249.697,158.095z"/>
<path fill="#99CCFF" d="M601.896,489.477c0-19.232-14.911-34.819-33.082-34.819c-1.266,0-2.601,0.082-3.827,0.229
	c-8.338-23.058-29.772-39.495-54.846-39.495c-21.585,0-40.459,12.197-50.609,30.305c-1.559-0.472-3.038-0.729-4.751-0.729
	c-9.364,0-16.78,7.593-16.78,16.956c0,0.03,0,0.062,0,0.094c-16,1.175-26.843,14.642-26.843,31.093
	c0,16.225,10.843,29.553,25.843,31.042V525h137v-1.058C589,521.554,601.896,507.037,601.896,489.477z"/>
<path fill="#99CCFF" d="M1106.656,151.58c0-16.144-12.397-29.228-27.65-29.228c-1.062,0-2.123,0.069-3.152,0.192
	c-6.999-19.355-24.963-33.153-46.01-33.153c-18.119,0-33.946,10.239-42.467,25.438c-1.309-0.396-2.701-0.611-4.14-0.611
	c-7.86,0-14.237,6.374-14.237,14.233c0,0.026,0,0.052,0,0.079c-13,0.986-22.613,12.291-22.613,26.1
	c0,13.619,9.613,24.807,21.613,26.057V181h115v-0.488C1096,178.506,1106.656,166.321,1106.656,151.58z"/>
<path fill="#99CCFF" d="M1060.122,673.471c0-14.559-11.285-26.357-25.04-26.357c-0.958,0-1.967,0.062-2.895,0.174
	c-6.312-17.454-22.537-29.896-41.517-29.896c-16.339,0-30.624,9.232-38.308,22.939c-1.18-0.356-2.332-0.552-3.629-0.552
	c-7.088,0-12.734,5.748-12.734,12.835c0,0.023,0,0.046,0,0.071c-12,0.889-20.441,11.083-20.441,23.536
	c0,12.281,8.441,22.37,19.441,23.497V700h104v-0.44C1050,697.751,1060.122,686.763,1060.122,673.471z"/>
<path fill="#99CCFF" d="M858.122,313.471c0-14.559-11.285-26.357-25.04-26.357c-0.958,0-1.967,0.062-2.895,0.174
	c-6.312-17.454-22.537-29.896-41.517-29.896c-16.339,0-30.624,9.232-38.308,22.939c-1.18-0.356-2.332-0.552-3.629-0.552
	c-7.088,0-12.734,5.748-12.734,12.835c0,0.023,0,0.046,0,0.071c-12,0.889-20.441,11.083-20.441,23.536
	c0,12.281,8.441,22.37,19.441,23.497V340h104v-0.44C848,337.751,858.122,326.763,858.122,313.471z"/>
<path fill="#99CCFF" d="M195.122,756.471c0-14.559-11.285-26.357-25.04-26.357c-0.958,0-1.967,0.062-2.895,0.174
	c-6.312-17.454-22.537-29.896-41.517-29.896c-16.339,0-30.624,9.232-38.308,22.939c-1.18-0.356-2.332-0.552-3.629-0.552
	c-7.088,0-12.734,5.748-12.734,12.835c0,0.023,0,0.046,0,0.071c-12,0.889-20.441,11.083-20.441,23.536
	c0,12.281,8.441,22.37,19.441,23.497V783h104v-0.44C185,780.751,195.122,769.763,195.122,756.471z"/>
</svg>
