<?xml version="1.0" encoding="utf-8"?>
<!-- Generator: Adobe Illustrator 16.0.0, SVG Export Plug-In . SVG Version: 6.00 Build 0)  -->
<!DOCTYPE svg PUBLIC "-//W3C//DTD SVG 1.1//EN" "http://www.w3.org/Graphics/SVG/1.1/DTD/svg11.dtd">
<svg version="1.1" id="Layer_1" xmlns="http://www.w3.org/2000/svg" xmlns:xlink="http://www.w3.org/1999/xlink" x="0px" y="0px"
	 width="792px" height="612px" viewBox="0 0 792 612" enable-background="new 0 0 792 612" xml:space="preserve">
<g>
	<g>
		<polygon fill="#EC5554" points="207.5,191.418 273.655,569.005 528.289,571.5 580.092,193.291 		"/>
		<path fill="#FFFFFF" d="M207.5,191.418c0,0,162.892,196.594,372.592,1.872c0,0-14.979-106.723-196.594-159.147
			C383.498,34.143,278.648,45.377,207.5,191.418z"/>
	</g>
	<g>
		<g>
			<defs>
				<path id="SVGID_1_" d="M207.5,191.418c0,0,162.892,196.594,372.592,1.872c0,0-14.979-106.723-196.594-159.147
					C383.498,34.143,278.648,45.377,207.5,191.418z"/>
			</defs>
			<clipPath id="SVGID_2_">
				<use xlink:href="#SVGID_1_"  overflow="visible"/>
			</clipPath>
			<g clip-path="url(#SVGID_2_)">
				<polygon fill="#FFD684" points="344.803,419.594 283.681,137.121 251.389,148.229 298.673,433.875 				"/>
				<polygon fill="#F0B753" points="238.704,170.446 251.389,148.229 298.673,433.875 344.803,419.594 327.507,448.156 
					287.14,452.918 				"/>
			</g>
		</g>
		<g>
			<defs>
				<path id="SVGID_3_" d="M207.5,191.418c0,0,162.892,196.594,372.592,1.872c0,0-14.979-106.723-196.594-159.147
					C383.498,34.143,278.648,45.377,207.5,191.418z"/>
			</defs>
			<clipPath id="SVGID_4_">
				<use xlink:href="#SVGID_3_"  overflow="visible"/>
			</clipPath>
			<g clip-path="url(#SVGID_4_)">
				<polygon fill="#F0B753" points="317.344,109.661 304.861,115.902 302.365,409.232 339.812,420.467 338.562,406.737 
					312.35,401.744 				"/>
				<polygon fill="#FFD684" points="349.797,123.391 317.344,109.661 312.35,401.744 338.562,406.737 				"/>
			</g>
		</g>
		<g>
			<defs>
				<path id="SVGID_5_" d="M207.5,191.418c0,0,162.892,196.594,372.592,1.872c0,0-14.979-106.723-196.594-159.147
					C383.498,34.143,278.648,45.377,207.5,191.418z"/>
			</defs>
			<clipPath id="SVGID_6_">
				<use xlink:href="#SVGID_5_"  overflow="visible"/>
			</clipPath>
			<g clip-path="url(#SVGID_6_)">
				<polygon fill="#FFD684" points="359.78,73.462 395.979,50.994 459.639,445.432 417.198,460.409 				"/>
				<polygon fill="#F1B853" points="407.214,57.236 395.979,50.994 459.639,445.432 417.198,460.409 423.439,465.403 
					465.878,450.425 				"/>
			</g>
		</g>
		<g>
			<defs>
				<path id="SVGID_7_" d="M207.5,191.418c0,0,162.892,196.594,372.592,1.872c0,0-14.979-106.723-196.594-159.147
					C383.498,34.143,278.648,45.377,207.5,191.418z"/>
			</defs>
			<clipPath id="SVGID_8_">
				<use xlink:href="#SVGID_7_"  overflow="visible"/>
			</clipPath>
			<g clip-path="url(#SVGID_8_)">
				<polygon fill="#FFD684" points="410.889,65.596 451.574,71.855 426.37,457.559 380.305,453.522 				"/>
				<polygon fill="#F3B74B" points="470.723,87.002 451.574,71.855 426.37,457.559 380.305,453.522 396.66,469.052 435.547,472.596 
									"/>
			</g>
		</g>
		<g>
			<defs>
				<path id="SVGID_9_" d="M207.5,191.418c0,0,162.892,196.594,372.592,1.872c0,0-14.979-106.723-196.594-159.147
					C383.498,34.143,278.648,45.377,207.5,191.418z"/>
			</defs>
			<clipPath id="SVGID_10_">
				<use xlink:href="#SVGID_9_"  overflow="visible"/>
			</clipPath>
			<g clip-path="url(#SVGID_10_)">
				<polygon fill="#FFD680" points="385.708,150.851 339.617,139.616 373.415,449.174 427.186,450.425 				"/>
				<polygon fill="#F3BA55" points="327.327,147.106 339.617,139.616 373.415,449.174 427.186,450.425 416.429,457.914 
					362.663,454.169 				"/>
			</g>
		</g>
		<g>
			<defs>
				<path id="SVGID_11_" d="M207.5,191.418c0,0,162.892,196.594,372.592,1.872c0,0-14.979-106.723-196.594-159.147
					C383.498,34.143,278.648,45.377,207.5,191.418z"/>
			</defs>
			<clipPath id="SVGID_12_">
				<use xlink:href="#SVGID_11_"  overflow="visible"/>
			</clipPath>
			<g clip-path="url(#SVGID_12_)">
				<path fill="#FFD586" d="M540.774,78.455c0,0,34.95,3.745,33.701,7.489s-88.624,409.415-88.624,409.415l-41.192-2.497
					L540.774,78.455z"/>
				<polygon fill="#EDBA53" points="527.042,83.447 540.774,78.455 444.659,492.862 485.852,495.359 464.633,501.599 
					430.93,497.854 				"/>
			</g>
		</g>
		<g>
			<defs>
				<path id="SVGID_13_" d="M207.5,191.418c0,0,162.892,196.594,372.592,1.872c0,0-14.979-106.723-196.594-159.147
					C383.498,34.143,278.648,45.377,207.5,191.418z"/>
			</defs>
			<clipPath id="SVGID_14_">
				<use xlink:href="#SVGID_13_"  overflow="visible"/>
			</clipPath>
			<g clip-path="url(#SVGID_14_)">
				<polygon fill="#FFD686" points="487.883,141.341 442.345,128.299 486.101,463.885 525.512,461.084 				"/>
				<polygon fill="#F4B44E" points="436.36,148.149 442.345,128.299 486.101,463.885 525.512,461.084 517.97,471.692 
					478.559,474.491 				"/>
			</g>
		</g>
	</g>
</g>
</svg>
