<?xml version="1.0" encoding="utf-8"?>
<!-- Generator: Adobe Illustrator 16.0.0, SVG Export Plug-In . SVG Version: 6.00 Build 0)  -->
<!DOCTYPE svg PUBLIC "-//W3C//DTD SVG 1.1//EN" "http://www.w3.org/Graphics/SVG/1.1/DTD/svg11.dtd">
<svg version="1.1" id="Layer_1" xmlns="http://www.w3.org/2000/svg" xmlns:xlink="http://www.w3.org/1999/xlink" x="0px" y="0px"
	 width="932px" height="172.141px" viewBox="0 0 932 172.141" enable-background="new 0 0 932 172.141" xml:space="preserve">
<linearGradient id="SVGID_1_" gradientUnits="userSpaceOnUse" x1="8595.8652" y1="70.54" x2="8818.7725" y2="70.5401" gradientTransform="matrix(-1 0 0 1 8861.6699 0)">
	<stop  offset="0" style="stop-color:#00BCEF"/>
	<stop  offset="0.4305" style="stop-color:#7A287C"/>
</linearGradient>
<path fill="url(#SVGID_1_)" d="M42.896,125.505c0-41.611,16.346-73.27,42.935-93.476c6.203-4.714,12.423-8.673,19.826-11.796
	c12.777-5.391,26.666-10.715,42.638-10.716c64.903,0,117.51,53.971,117.51,122.043h-67.217c0,0,1.383-81.916-54.505-97.227
	c0,0-89.098-38.208-100.581,91.171"/>
<linearGradient id="SVGID_2_" gradientUnits="userSpaceOnUse" x1="30.7808" y1="69.9336" x2="265.8037" y2="69.9336">
	<stop  offset="0" style="stop-color:#FFFFFF"/>
	<stop  offset="0" style="stop-color:#FEF2DF"/>
	<stop  offset="0" style="stop-color:#FCE2B6"/>
	<stop  offset="0" style="stop-color:#FBD390"/>
	<stop  offset="0" style="stop-color:#F9C670"/>
	<stop  offset="0" style="stop-color:#F8BB54"/>
	<stop  offset="0" style="stop-color:#F7B23E"/>
	<stop  offset="0" style="stop-color:#F7AB2D"/>
	<stop  offset="0" style="stop-color:#F6A622"/>
	<stop  offset="0" style="stop-color:#F6A41B"/>
	<stop  offset="0" style="stop-color:#F6A319"/>
	<stop  offset="0.0335" style="stop-color:#F7A818"/>
	<stop  offset="0.0807" style="stop-color:#F9B513"/>
	<stop  offset="0.0913" style="stop-color:#FAB911"/>
	<stop  offset="0.2019" style="stop-color:#FBC00D"/>
	<stop  offset="0.3872" style="stop-color:#FFD400"/>
	<stop  offset="0.5234" style="stop-color:#FFE500"/>
	<stop  offset="1" style="stop-color:#FFF200"/>
</linearGradient>
<path fill="url(#SVGID_2_)" d="M265.804,131.561c0-68.072-52.612-123.254-117.51-123.254c-64.901,0-117.513,55.182-117.513,123.254
	h67.226c0,0-1.386-81.916,54.497-97.227C152.503,34.334,254.321,2.181,265.804,131.561"/>
<g>
	<path d="M312.363,131.146c-0.958,0-1.598-0.639-1.598-1.598V22.486c0-0.957,0.64-1.438,1.598-1.597l14.38-1.598h19.177
		c36.751,0,41.548,12.783,41.548,31.96c0,10.703-4.796,17.735-12.786,22.369c9.109,4.794,15.982,12.465,15.982,23.968
		c0,19.175-4.793,33.558-44.744,33.558H312.363z M345.92,65.632c19.174,0,22.371-7.189,22.371-15.978
		c0-8.792-3.197-14.385-22.371-14.385h-15.98v30.362H345.92z M329.94,81.611v33.554h15.98c22.371,0,25.566-7.19,25.566-15.979
		s-3.195-17.575-25.566-17.575H329.94z"/>
	<path d="M457.757,52.85c0,0,1.598,12.144,1.598,12.782c0,0.959-0.641,1.598-1.598,1.598c-0.8,0-10.067-1.598-12.782-1.598
		c-13.265,0-20.776,6.551-20.776,19.175v44.742c0,0.959-0.637,1.598-1.598,1.598h-15.978c-0.959,0-1.598-0.639-1.598-1.598V64.034
		c0-6.392-1.6-10.549-1.6-11.185c0-0.962,0.641-1.598,1.6-1.598h15.978c0.64,0,1.438,0.636,1.598,1.598l1.279,5.593
		c3.515-3.839,9.909-8.788,21.095-8.788c4.792,0,11.185,1.598,11.185,1.598C456.799,51.408,457.598,52.051,457.757,52.85z"/>
	<path d="M480.799,17.694c6.233,0,11.186,4.953,11.186,11.184c0,6.232-4.952,11.186-11.186,11.186
		c-6.23,0-11.184-4.953-11.184-11.186C469.615,22.647,474.568,17.694,480.799,17.694z M471.213,54.447
		c0-0.962,0.636-1.598,1.597-1.598l15.979-1.598c0.957,0,1.598,0.636,1.598,1.598v65.514c0,6.392,1.598,10.546,1.598,11.186
		c0,0.959-0.64,1.598-1.598,1.598h-15.979c-0.64,0-1.28-0.639-1.599-1.598c0,0-1.597-4.794-1.597-11.186V54.447z"/>
	<path d="M563.32,124.277c0,0-9.266,8.467-21.253,8.467c-32.119,0-36.75-18.695-36.75-41.547c0-22.851,4.631-41.543,36.75-41.543
		c9.75,0,16.94,4.631,20.776,7.988V12.897c0-0.956,0.799-1.598,1.598-1.598c0.958,0,15.978,1.598,15.978,1.598
		c0.958,0.162,1.599,0.643,1.599,1.598v102.269c0,7.991,1.598,11.827,1.598,12.785c0,0.959-0.641,1.598-1.598,1.598h-15.979
		c-0.639,0-1.279-0.639-1.597-1.598C564.279,128.429,563.32,124.277,563.32,124.277z M542.067,65.632
		c-14.698,0-17.575,11.186-17.575,25.565c0,14.381,2.877,25.566,17.575,25.566c16.3,0,20.454-10.065,20.776-25.566
		C562.844,76.817,558.367,65.632,542.067,65.632z"/>
	<path d="M632.696,151.923c19.977,0,20.774-11.348,20.774-20.776v-6.392c0,0-7.189,7.989-20.774,7.989
		c-32.119,0-36.751-18.695-36.751-41.547c0-22.851,4.632-41.543,36.751-41.543c11.983,0,21.252,8.466,21.252,8.466
		s0.961-4.153,1.12-5.271c0.319-0.962,0.958-1.598,1.599-1.598h15.978c0.959,0,1.598,0.636,1.598,1.598
		c0,0.955-1.598,4.793-1.598,12.782v65.515c0,22.528-6.391,36.754-39.948,36.754c-15.66,0-27.163-4.794-27.163-4.794
		c-0.8-0.32-1.438-0.961-1.598-1.598c0,0-1.6-12.465-1.6-12.783c0-0.961,0.637-1.597,1.6-1.597
		C604.733,147.129,619.113,151.923,632.696,151.923z M632.696,65.632c-14.7,0-17.577,11.186-17.577,25.565
		c0,14.381,2.877,25.566,17.577,25.566c16.299,0,20.774-11.186,20.774-25.566C653.149,75.699,648.995,65.632,632.696,65.632z"/>
	<path d="M706.228,99.187c1.277,10.229,5.592,17.577,21.571,17.577c12.782,0,26.364-3.196,27.164-3.196c0.961,0,1.6,0.643,1.6,1.598
		c0,0.48-1.6,12.786-1.6,12.786c-0.159,0.799-0.637,1.438-1.6,1.598c0,0-11.184,3.195-25.564,3.195
		c-34.356,0-41.548-18.695-41.548-41.547c0-22.851,7.351-41.387,39.949-41.387c22.691,0,35.315,12.626,35.315,41.387v6.392
		c0,0.8-0.8,1.598-1.757,1.598H706.228z M706.228,83.209h35.793c-0.641-8.95-4.635-17.577-15.82-17.577
		C711.021,65.632,707.346,73.141,706.228,83.209z"/>
</g>
<g>
	<path fill="#00AEEF" d="M791.137,89.986h13.33c6.074,0,10.482,0.863,13.227,2.592s4.117,4.479,4.117,8.248
		c0,2.559-0.602,4.658-1.803,6.299s-2.797,2.627-4.789,2.959v0.293c2.714,0.605,4.672,1.738,5.873,3.398s1.803,3.867,1.803,6.621
		c0,3.906-1.412,6.953-4.234,9.141s-6.654,3.281-11.498,3.281h-16.025V89.986z M800.219,106.949h5.273
		c2.461,0,4.242-0.381,5.346-1.143s1.656-2.021,1.656-3.779c0-1.641-0.602-2.817-1.803-3.531c-1.201-0.713-3.101-1.068-5.697-1.068
		h-4.775V106.949z M800.219,114.156v11.162h5.918c2.5,0,4.346-0.479,5.537-1.436c1.19-0.957,1.787-2.422,1.787-4.395
		c0-3.555-2.539-5.332-7.617-5.332H800.219z"/>
	<path fill="#00AEEF" d="M845.569,133.404c-5.273,0-9.394-1.455-12.362-4.365c-2.97-2.91-4.453-7.031-4.453-12.363
		c0-5.488,1.371-9.731,4.115-12.73c2.744-2.998,6.538-4.496,11.382-4.496c4.629,0,8.232,1.318,10.811,3.955
		s3.867,6.279,3.867,10.928v4.336h-21.123c0.098,2.539,0.85,4.521,2.256,5.947s3.379,2.139,5.918,2.139
		c1.973,0,3.838-0.205,5.596-0.615s3.594-1.064,5.508-1.963v6.914c-1.562,0.781-3.232,1.361-5.01,1.742
		S848.128,133.404,845.569,133.404z M844.31,105.807c-1.895,0-3.379,0.6-4.453,1.801s-1.689,2.906-1.846,5.113h12.539
		c-0.039-2.207-0.615-3.912-1.729-5.113S846.204,105.807,844.31,105.807z"/>
	<path fill="#00AEEF" d="M879.993,126.285c1.562,0,3.438-0.342,5.625-1.025v6.65c-2.227,0.996-4.961,1.494-8.203,1.494
		c-3.574,0-6.177-0.904-7.808-2.711c-1.631-1.806-2.446-4.516-2.446-8.129v-15.791h-4.277v-3.779l4.922-2.988l2.578-6.914h5.713
		v6.973h9.17v6.709h-9.17v15.791c0,1.27,0.356,2.207,1.069,2.812S878.821,126.285,879.993,126.285z"/>
	<path fill="#00AEEF" d="M913.04,132.818l-1.729-4.453h-0.234c-1.504,1.895-3.052,3.207-4.644,3.939s-3.667,1.1-6.226,1.1
		c-3.145,0-5.62-0.898-7.427-2.695s-2.71-4.355-2.71-7.676c0-3.477,1.216-6.04,3.647-7.691c2.432-1.65,6.099-2.562,11.001-2.738
		l5.684-0.176v-1.436c0-3.32-1.699-4.98-5.098-4.98c-2.617,0-5.693,0.791-9.229,2.373l-2.959-6.035
		c3.77-1.973,7.949-2.959,12.539-2.959c4.395,0,7.764,0.957,10.107,2.871s3.516,4.824,3.516,8.73v21.826H913.04z M910.403,117.643
		l-3.457,0.117c-2.598,0.078-4.531,0.547-5.801,1.406s-1.904,2.168-1.904,3.926c0,2.52,1.445,3.779,4.336,3.779
		c2.07,0,3.726-0.596,4.966-1.787s1.86-2.773,1.86-4.746V117.643z"/>
</g>
</svg>
