<?xml version="1.0" encoding="utf-8"?>
<!-- Generator: Adobe Illustrator 16.0.0, SVG Export Plug-In . SVG Version: 6.00 Build 0)  -->
<!DOCTYPE svg PUBLIC "-//W3C//DTD SVG 1.1//EN" "http://www.w3.org/Graphics/SVG/1.1/DTD/svg11.dtd">
<svg version="1.1" id="Layer_1" xmlns="http://www.w3.org/2000/svg" xmlns:xlink="http://www.w3.org/1999/xlink" x="0px" y="0px"
	 width="932px" height="172.141px" viewBox="0 0 932 172.141" enable-background="new 0 0 932 172.141" xml:space="preserve">
<linearGradient id="SVGID_1_" gradientUnits="userSpaceOnUse" x1="9419.0742" y1="690.6038" x2="9641.9844" y2="690.6039" gradientTransform="matrix(-1 0 0 1 9688.8691 -620.0586)">
	<stop  offset="0" style="stop-color:#00BCEF"/>
	<stop  offset="0.4305" style="stop-color:#7A287C"/>
</linearGradient>
<path fill="url(#SVGID_1_)" d="M46.881,125.505c0-41.611,16.346-73.271,42.935-93.478c6.203-4.714,12.424-8.673,19.826-11.796
	c12.777-5.391,26.666-10.715,42.638-10.716c64.903,0,117.512,53.971,117.512,122.043h-67.219c0,0,1.385-81.916-54.505-97.227
	c0,0-89.098-38.208-100.581,91.171"/>
<linearGradient id="SVGID_2_" gradientUnits="userSpaceOnUse" x1="221.5647" y1="689.9924" x2="456.5891" y2="689.9924" gradientTransform="matrix(1 0 0 1 -186.7998 -620.0586)">
	<stop  offset="0" style="stop-color:#FFFFFF"/>
	<stop  offset="0" style="stop-color:#FEF2DF"/>
	<stop  offset="0" style="stop-color:#FCE2B6"/>
	<stop  offset="0" style="stop-color:#FBD390"/>
	<stop  offset="0" style="stop-color:#F9C670"/>
	<stop  offset="0" style="stop-color:#F8BB54"/>
	<stop  offset="0" style="stop-color:#F7B23E"/>
	<stop  offset="0" style="stop-color:#F7AB2D"/>
	<stop  offset="0" style="stop-color:#F6A622"/>
	<stop  offset="0" style="stop-color:#F6A41B"/>
	<stop  offset="0" style="stop-color:#F6A319"/>
	<stop  offset="0.0335" style="stop-color:#F7A818"/>
	<stop  offset="0.0807" style="stop-color:#F9B513"/>
	<stop  offset="0.0913" style="stop-color:#FAB911"/>
	<stop  offset="0.2019" style="stop-color:#FBC00D"/>
	<stop  offset="0.3872" style="stop-color:#FFD400"/>
	<stop  offset="0.5234" style="stop-color:#FFE500"/>
	<stop  offset="1" style="stop-color:#FFF200"/>
</linearGradient>
<path fill="url(#SVGID_2_)" d="M269.789,131.561c0-68.072-52.612-123.254-117.512-123.254S34.765,63.489,34.765,131.561h67.227
	c0,0-1.387-81.916,54.497-97.227C156.489,34.334,258.306,2.181,269.789,131.561"/>
<g>
	<path fill="#00AEEF" d="M769.095,89.986h13.33c6.074,0,10.48,0.863,13.227,2.594c2.746,1.729,4.117,4.479,4.117,8.248
		c0,2.559-0.602,4.656-1.803,6.299c-1.201,1.641-2.797,2.627-4.789,2.959v0.293c2.715,0.604,4.672,1.736,5.873,3.396
		s1.803,3.867,1.803,6.621c0,3.906-1.412,6.953-4.232,9.143c-2.822,2.188-6.654,3.279-11.498,3.279h-16.025L769.095,89.986
		L769.095,89.986z M778.177,106.949h5.273c2.461,0,4.24-0.383,5.346-1.145c1.104-0.762,1.656-2.021,1.656-3.779
		c0-1.641-0.604-2.815-1.805-3.529c-1.199-0.713-3.1-1.068-5.695-1.068h-4.775V106.949z M778.177,114.156v11.162h5.918
		c2.5,0,4.346-0.479,5.537-1.436c1.189-0.957,1.787-2.422,1.787-4.396c0-3.555-2.539-5.332-7.617-5.332L778.177,114.156
		L778.177,114.156z"/>
	<path fill="#00AEEF" d="M823.527,133.404c-5.271,0-9.393-1.453-12.361-4.363c-2.971-2.91-4.451-7.031-4.451-12.363
		c0-5.488,1.369-9.731,4.113-12.73c2.744-2.997,6.537-4.494,11.383-4.494c4.629,0,8.23,1.316,10.811,3.953
		c2.58,2.639,3.867,6.279,3.867,10.93v4.336h-21.123c0.098,2.539,0.85,4.521,2.256,5.947c1.406,1.426,3.379,2.139,5.918,2.139
		c1.975,0,3.838-0.205,5.596-0.615c1.76-0.41,3.596-1.062,5.51-1.963v6.914c-1.562,0.781-3.232,1.361-5.012,1.742
		C828.256,133.214,826.088,133.404,823.527,133.404z M822.269,105.807c-1.896,0-3.379,0.6-4.453,1.801s-1.689,2.906-1.846,5.113
		h12.539c-0.039-2.207-0.615-3.912-1.729-5.113C825.666,106.406,824.162,105.807,822.269,105.807z"/>
	<path fill="#00AEEF" d="M857.953,126.285c1.561,0,3.438-0.344,5.625-1.025v6.65c-2.229,0.994-4.961,1.492-8.203,1.492
		c-3.574,0-6.178-0.902-7.809-2.711c-1.631-1.806-2.445-4.516-2.445-8.129v-15.791h-4.277v-3.777l4.922-2.988l2.578-6.914h5.713
		v6.973h9.17v6.709h-9.17v15.791c0,1.271,0.355,2.207,1.068,2.812C855.838,125.982,856.781,126.285,857.953,126.285z"/>
	<path fill="#00AEEF" d="M890.998,132.818l-1.729-4.453h-0.234c-1.504,1.896-3.053,3.207-4.645,3.939s-3.666,1.1-6.227,1.1
		c-3.145,0-5.619-0.896-7.428-2.693c-1.807-1.797-2.709-4.355-2.709-7.676c0-3.479,1.215-6.04,3.646-7.691
		c2.432-1.65,6.1-2.562,11.002-2.738l5.684-0.176v-1.436c0-3.32-1.699-4.98-5.098-4.98c-2.617,0-5.693,0.791-9.23,2.373
		l-2.959-6.035c3.771-1.973,7.949-2.959,12.539-2.959c4.396,0,7.766,0.957,10.107,2.871c2.344,1.914,3.516,4.824,3.516,8.73v21.824
		H890.998z M888.361,117.643l-3.457,0.117c-2.598,0.078-4.529,0.547-5.801,1.406c-1.27,0.857-1.904,2.168-1.904,3.926
		c0,2.52,1.445,3.779,4.338,3.779c2.068,0,3.727-0.598,4.967-1.787c1.238-1.191,1.857-2.773,1.857-4.746V117.643z"/>
</g>
<rect x="300.485" y="18.571" fill="none" width="537" height="237"/>
<g enable-background="new    ">
	<path d="M315.646,25.49h29.37c13.231,0,22.949,2.246,29.15,6.738c6.2,4.493,9.302,11.279,9.302,20.361
		c0,6.201-1.893,11.365-5.676,15.49c-3.785,4.127-9.314,6.775-16.589,7.947v0.439c8.544,1.271,14.832,3.968,18.86,8.094
		s6.042,9.876,6.042,17.248c0,9.863-3.272,17.457-9.814,22.778c-6.544,5.322-15.82,7.983-27.832,7.983h-32.812V25.49z
		 M323.116,73.17H346.7c10.058,0,17.37-1.672,21.936-5.017c4.565-3.345,6.848-8.581,6.848-15.711c0-7.129-2.576-12.305-7.727-15.527
		c-5.152-3.223-12.83-4.834-23.035-4.834h-21.606V73.17z M323.116,79.762v46.216h25.195c19.823,0,29.736-8.057,29.736-24.17
		c0-14.696-10.45-22.046-31.348-22.046H323.116z"/>
	<path d="M439.205,51.417c3.369,0,6.982,0.342,10.84,1.025l-1.392,6.958c-3.321-0.83-6.764-1.245-10.327-1.245
		c-6.788,0-12.354,2.882-16.699,8.643c-4.347,5.762-6.519,13.037-6.519,21.826v43.945h-7.251V52.955h6.152l0.732,14.355h0.513
		c3.271-5.859,6.762-9.973,10.474-12.341C429.439,52.602,433.932,51.417,439.205,51.417z"/>
	<path d="M465.206,30.836c0-4.688,1.538-7.031,4.614-7.031c1.514,0,2.697,0.611,3.553,1.831c0.854,1.221,1.281,2.955,1.281,5.2
		c0,2.197-0.428,3.931-1.281,5.2c-0.855,1.271-2.039,1.904-3.553,1.904C466.744,37.941,465.206,35.573,465.206,30.836z
		 M473.482,132.57h-7.25V52.955h7.25V132.57z"/>
	<path d="M529.293,51.417c5.762,0,10.742,1.051,14.941,3.149c4.199,2.1,7.959,5.688,11.279,10.767h0.439
		c-0.293-6.152-0.439-12.183-0.439-18.091V18.605h7.178V132.57h-4.76l-1.832-12.158h-0.586
		c-6.055,9.082-14.746,13.623-26.074,13.623c-10.986,0-19.385-3.417-25.195-10.254c-5.811-6.836-8.715-16.797-8.715-29.883
		c0-13.77,2.88-24.291,8.643-31.567C509.931,55.055,518.306,51.417,529.293,51.417z M529.293,58.009
		c-8.691,0-15.223,3.052-19.592,9.155c-4.371,6.104-6.555,14.967-6.555,26.587c0,22.559,8.764,33.838,26.293,33.838
		c8.984,0,15.576-2.611,19.775-7.837c4.199-5.225,6.299-13.843,6.299-25.854v-1.245c0-12.305-2.062-21.154-6.189-26.55
		C545.199,60.707,538.521,58.009,529.293,58.009z"/>
	<path d="M651.535,52.955v5.054l-16.48,1.025c4.395,5.469,6.592,11.475,6.592,18.018c0,7.666-2.551,13.879-7.652,18.641
		c-5.104,4.76-11.951,7.141-20.545,7.141c-3.615,0-6.152-0.146-7.617-0.439c-2.883,1.514-5.08,3.296-6.592,5.347
		c-1.514,2.051-2.271,4.224-2.271,6.519c0,2.539,0.965,4.395,2.895,5.566c1.928,1.172,5.162,1.758,9.703,1.758h13.916
		c8.643,0,15.26,1.746,19.85,5.236c4.588,3.492,6.885,8.654,6.885,15.491c0,8.397-3.406,14.88-10.217,19.446
		c-6.812,4.564-16.518,6.848-29.115,6.848c-10.01,0-17.76-1.93-23.254-5.786c-5.492-3.857-8.24-9.229-8.24-16.113
		c0-5.469,1.697-10.01,5.092-13.623c3.393-3.613,7.994-6.079,13.805-7.397c-2.393-1.025-4.309-2.478-5.748-4.357
		c-1.441-1.88-2.162-4.04-2.162-6.482c0-5.321,3.395-10.009,10.182-14.062c-4.641-1.904-8.252-4.895-10.84-8.973
		c-2.59-4.076-3.883-8.752-3.883-14.025c0-7.958,2.527-14.343,7.582-19.152c5.053-4.81,11.875-7.215,20.471-7.215
		c5.225,0,9.275,0.513,12.158,1.538H651.535z M587.082,146.046c0,10.938,8.129,16.406,24.389,16.406
		c20.898,0,31.348-6.665,31.348-19.995c0-4.786-1.637-8.252-4.906-10.4c-3.271-2.148-8.57-3.223-15.895-3.223H608.98
		C594.381,128.834,587.082,134.572,587.082,146.046z M593.16,77.784c0,6.152,1.869,10.926,5.604,14.318
		c3.736,3.395,8.727,5.091,14.979,5.091c6.639,0,11.73-1.685,15.271-5.054c3.539-3.369,5.309-8.251,5.309-14.648
		c0-6.786-1.818-11.877-5.455-15.271c-3.639-3.393-8.729-5.09-15.271-5.09c-6.348,0-11.342,1.819-14.979,5.457
		C594.978,66.225,593.16,71.291,593.16,77.784z"/>
	<path d="M700.021,134.034c-11.572,0-20.594-3.563-27.064-10.693c-6.469-7.129-9.703-17.113-9.703-29.956
		c0-12.695,3.123-22.863,9.375-30.505c6.25-7.642,14.672-11.463,25.268-11.463c9.375,0,16.773,3.271,22.193,9.814
		c5.42,6.544,8.129,15.43,8.129,26.66v5.859h-57.348c0.098,10.938,2.648,19.288,7.652,25.049c5.006,5.762,12.17,8.643,21.498,8.643
		c4.541,0,8.531-0.317,11.975-0.952c3.441-0.634,7.801-2.002,13.074-4.102v6.592c-4.494,1.953-8.643,3.284-12.451,3.991
		C708.81,133.68,704.609,134.034,700.021,134.034z M697.896,57.863c-7.666,0-13.818,2.527-18.457,7.58
		c-4.639,5.055-7.35,12.342-8.129,21.863h49.219c0-9.229-2.004-16.443-6.006-21.643C710.519,60.462,704.976,57.863,697.896,57.863z"
		/>
</g>
</svg>
