<?xml version="1.0" encoding="utf-8"?>
<!-- Generator: Adobe Illustrator 16.0.0, SVG Export Plug-In . SVG Version: 6.00 Build 0)  -->
<!DOCTYPE svg PUBLIC "-//W3C//DTD SVG 1.1//EN" "http://www.w3.org/Graphics/SVG/1.1/DTD/svg11.dtd">
<svg version="1.1" id="Layer_1" xmlns="http://www.w3.org/2000/svg" xmlns:xlink="http://www.w3.org/1999/xlink" x="0px" y="0px"
	 width="932px" height="172.141px" viewBox="952 0 932 172.141" enable-background="new 952 0 932 172.141" xml:space="preserve">
<linearGradient id="SVGID_1_" gradientUnits="userSpaceOnUse" x1="8076.4678" y1="-82.0037" x2="8299.377" y2="-82.0038" gradientTransform="matrix(-1 0 0 -1 9275.2695 -11.4585)">
	<stop  offset="0" style="stop-color:#00BCEF"/>
	<stop  offset="0.4305" style="stop-color:#7A287C"/>
</linearGradient>
<path fill="url(#SVGID_1_)" d="M975.896,125.505c0-41.611,16.346-73.271,42.935-93.477c6.203-4.714,12.423-8.673,19.826-11.796
	c12.777-5.391,26.666-10.715,42.638-10.716c64.903,0,117.511,53.971,117.511,122.043h-67.218c0,0,1.384-81.916-54.505-97.227
	c0,0-89.098-38.208-100.581,91.171"/>
<linearGradient id="SVGID_2_" gradientUnits="userSpaceOnUse" x1="1057.1814" y1="-81.3923" x2="1292.2048" y2="-81.3923" gradientTransform="matrix(1 0 0 -1 -93.3999 -11.4585)">
	<stop  offset="0" style="stop-color:#FFFFFF"/>
	<stop  offset="0" style="stop-color:#FEF2DF"/>
	<stop  offset="0" style="stop-color:#FCE2B6"/>
	<stop  offset="0" style="stop-color:#FBD390"/>
	<stop  offset="0" style="stop-color:#F9C670"/>
	<stop  offset="0" style="stop-color:#F8BB54"/>
	<stop  offset="0" style="stop-color:#F7B23E"/>
	<stop  offset="0" style="stop-color:#F7AB2D"/>
	<stop  offset="0" style="stop-color:#F6A622"/>
	<stop  offset="0" style="stop-color:#F6A41B"/>
	<stop  offset="0" style="stop-color:#F6A319"/>
	<stop  offset="0.0335" style="stop-color:#F7A818"/>
	<stop  offset="0.0807" style="stop-color:#F9B513"/>
	<stop  offset="0.0913" style="stop-color:#FAB911"/>
	<stop  offset="0.2019" style="stop-color:#FBC00D"/>
	<stop  offset="0.3872" style="stop-color:#FFD400"/>
	<stop  offset="0.5234" style="stop-color:#FFE500"/>
	<stop  offset="1" style="stop-color:#FFF200"/>
</linearGradient>
<path fill="url(#SVGID_2_)" d="M1198.804,131.561c0-68.072-52.612-123.254-117.511-123.254c-64.9,0-117.513,55.182-117.513,123.254
	h67.226c0,0-1.386-81.916,54.497-97.227C1085.503,34.334,1187.321,2.181,1198.804,131.561"/>
<g>
	<path fill="#00AEEF" d="M1698.111,89.986h13.33c6.073,0,10.481,0.863,13.227,2.593c2.745,1.729,4.117,4.479,4.117,8.248
		c0,2.559-0.602,4.657-1.803,6.299c-1.201,1.641-2.797,2.627-4.789,2.959v0.293c2.714,0.604,4.672,1.737,5.873,3.397
		s1.803,3.867,1.803,6.621c0,3.906-1.412,6.953-4.234,9.142c-2.821,2.188-6.653,3.28-11.498,3.28h-16.024L1698.111,89.986
		L1698.111,89.986z M1707.193,106.949h5.272c2.461,0,4.242-0.382,5.347-1.144c1.104-0.762,1.655-2.021,1.655-3.779
		c0-1.641-0.602-2.816-1.803-3.53c-1.201-0.713-3.101-1.068-5.697-1.068h-4.774V106.949z M1707.193,114.156v11.162h5.918
		c2.5,0,4.346-0.479,5.537-1.436c1.189-0.957,1.787-2.422,1.787-4.396c0-3.555-2.539-5.332-7.617-5.332L1707.193,114.156
		L1707.193,114.156z"/>
	<path fill="#00AEEF" d="M1752.543,133.404c-5.272,0-9.394-1.454-12.362-4.364c-2.97-2.91-4.452-7.031-4.452-12.363
		c0-5.488,1.37-9.731,4.114-12.73c2.744-2.998,6.538-4.495,11.383-4.495c4.629,0,8.231,1.317,10.811,3.954
		c2.579,2.638,3.867,6.279,3.867,10.929v4.336h-21.123c0.098,2.539,0.85,4.521,2.256,5.947c1.406,1.426,3.379,2.139,5.918,2.139
		c1.973,0,3.838-0.205,5.596-0.615s3.595-1.063,5.508-1.963v6.914c-1.562,0.781-3.231,1.361-5.01,1.742
		C1757.27,133.214,1755.102,133.404,1752.543,133.404z M1751.284,105.807c-1.896,0-3.379,0.6-4.453,1.801s-1.689,2.906-1.846,5.113
		h12.539c-0.039-2.207-0.615-3.912-1.729-5.113C1754.68,106.407,1753.177,105.807,1751.284,105.807z"/>
	<path fill="#00AEEF" d="M1786.967,126.285c1.562,0,3.438-0.343,5.625-1.025v6.65c-2.227,0.995-4.961,1.493-8.203,1.493
		c-3.573,0-6.177-0.903-7.808-2.711c-1.631-1.806-2.446-4.516-2.446-8.129v-15.791h-4.276v-3.778l4.922-2.988l2.578-6.914h5.713
		v6.973h9.17v6.709h-9.17v15.791c0,1.271,0.355,2.207,1.068,2.812C1784.853,125.982,1785.795,126.285,1786.967,126.285z"/>
	<path fill="#00AEEF" d="M1820.013,132.818l-1.729-4.453h-0.234c-1.504,1.896-3.052,3.207-4.644,3.939s-3.667,1.1-6.227,1.1
		c-3.145,0-5.619-0.897-7.427-2.694c-1.807-1.797-2.71-4.355-2.71-7.676c0-3.478,1.216-6.04,3.647-7.691
		c2.432-1.65,6.099-2.562,11.001-2.738l5.684-0.176v-1.436c0-3.32-1.699-4.98-5.098-4.98c-2.617,0-5.693,0.791-9.229,2.373
		l-2.959-6.035c3.771-1.973,7.949-2.959,12.539-2.959c4.396,0,7.764,0.957,10.107,2.871c2.343,1.914,3.516,4.824,3.516,8.73v21.825
		H1820.013z M1817.377,117.643l-3.457,0.117c-2.598,0.078-4.53,0.547-5.801,1.406c-1.271,0.858-1.904,2.168-1.904,3.926
		c0,2.52,1.445,3.779,4.336,3.779c2.07,0,3.727-0.597,4.967-1.787c1.239-1.191,1.859-2.773,1.859-4.746V117.643z"/>
</g>
<rect x="1229.5" y="18.571" fill="none" width="537" height="237"/>
<text transform="matrix(1 0 0 1 1229.4998 132.5696)" font-family="'OpenSans-Light'" font-size="150">Bridge</text>
</svg>
