<?xml version="1.0" encoding="utf-8"?>
<!-- Generator: Adobe Illustrator 16.0.0, SVG Export Plug-In . SVG Version: 6.00 Build 0)  -->
<!DOCTYPE svg PUBLIC "-//W3C//DTD SVG 1.1//EN" "http://www.w3.org/Graphics/SVG/1.1/DTD/svg11.dtd">
<svg version="1.1" id="Layer_1" xmlns="http://www.w3.org/2000/svg" xmlns:xlink="http://www.w3.org/1999/xlink" x="0px" y="0px"
	 width="1064.559px" height="172.141px" viewBox="0 0 1064.559 172.141" enable-background="new 0 0 1064.559 172.141"
	 xml:space="preserve">
<linearGradient id="SVGID_1_" gradientUnits="userSpaceOnUse" x1="8595.8652" y1="70.54" x2="8818.7725" y2="70.5401" gradientTransform="matrix(-1 0 0 1 8861.6699 0)">
	<stop  offset="0" style="stop-color:#00BCEF"/>
	<stop  offset="0.4305" style="stop-color:#7A287C"/>
</linearGradient>
<path fill="url(#SVGID_1_)" d="M42.896,125.505c0-41.611,16.346-73.27,42.935-93.476c6.203-4.714,12.423-8.673,19.826-11.796
	c12.777-5.391,26.666-10.715,42.638-10.716c64.903,0,117.51,53.971,117.51,122.043h-67.217c0,0,1.383-81.916-54.505-97.227
	c0,0-89.098-38.208-100.581,91.171"/>
<linearGradient id="SVGID_2_" gradientUnits="userSpaceOnUse" x1="30.7808" y1="69.9336" x2="265.8037" y2="69.9336">
	<stop  offset="0" style="stop-color:#FFFFFF"/>
	<stop  offset="0" style="stop-color:#FEF2DF"/>
	<stop  offset="0" style="stop-color:#FCE2B6"/>
	<stop  offset="0" style="stop-color:#FBD390"/>
	<stop  offset="0" style="stop-color:#F9C670"/>
	<stop  offset="0" style="stop-color:#F8BB54"/>
	<stop  offset="0" style="stop-color:#F7B23E"/>
	<stop  offset="0" style="stop-color:#F7AB2D"/>
	<stop  offset="0" style="stop-color:#F6A622"/>
	<stop  offset="0" style="stop-color:#F6A41B"/>
	<stop  offset="0" style="stop-color:#F6A319"/>
	<stop  offset="0.0335" style="stop-color:#F7A818"/>
	<stop  offset="0.0807" style="stop-color:#F9B513"/>
	<stop  offset="0.0913" style="stop-color:#FAB911"/>
	<stop  offset="0.2019" style="stop-color:#FBC00D"/>
	<stop  offset="0.3872" style="stop-color:#FFD400"/>
	<stop  offset="0.5234" style="stop-color:#FFE500"/>
	<stop  offset="1" style="stop-color:#FFF200"/>
</linearGradient>
<path fill="url(#SVGID_2_)" d="M265.804,131.561c0-68.072-52.612-123.254-117.51-123.254c-64.901,0-117.513,55.182-117.513,123.254
	h67.226c0,0-1.386-81.916,54.497-97.227C152.503,34.334,254.321,2.181,265.804,131.561"/>
<g>
	<path d="M312.363,131.146c-0.958,0-1.598-0.639-1.598-1.598V22.486c0-0.957,0.64-1.438,1.598-1.597l14.38-1.598h19.177
		c36.751,0,41.548,12.783,41.548,31.96c0,10.703-4.796,17.735-12.786,22.369c9.109,4.794,15.982,12.465,15.982,23.968
		c0,19.175-4.793,33.558-44.744,33.558H312.363z M345.92,65.632c19.174,0,22.371-7.189,22.371-15.978
		c0-8.792-3.197-14.385-22.371-14.385h-15.98v30.362H345.92z M329.94,81.611v33.554h15.98c22.371,0,25.566-7.19,25.566-15.979
		s-3.195-17.575-25.566-17.575H329.94z"/>
	<path d="M457.757,52.85c0,0,1.598,12.144,1.598,12.782c0,0.959-0.641,1.598-1.598,1.598c-0.8,0-10.067-1.598-12.782-1.598
		c-13.265,0-20.776,6.551-20.776,19.175v44.742c0,0.959-0.637,1.598-1.598,1.598h-15.978c-0.959,0-1.598-0.639-1.598-1.598V64.034
		c0-6.392-1.6-10.549-1.6-11.185c0-0.962,0.641-1.598,1.6-1.598h15.978c0.64,0,1.438,0.636,1.598,1.598l1.279,5.593
		c3.515-3.839,9.909-8.788,21.095-8.788c4.792,0,11.185,1.598,11.185,1.598C456.799,51.408,457.598,52.051,457.757,52.85z"/>
	<path d="M480.799,17.694c6.233,0,11.186,4.953,11.186,11.184c0,6.232-4.952,11.186-11.186,11.186
		c-6.23,0-11.184-4.953-11.184-11.186C469.615,22.647,474.568,17.694,480.799,17.694z M471.213,54.447
		c0-0.962,0.636-1.598,1.597-1.598l15.979-1.598c0.957,0,1.598,0.636,1.598,1.598v65.514c0,6.392,1.598,10.546,1.598,11.186
		c0,0.959-0.64,1.598-1.598,1.598h-15.979c-0.64,0-1.28-0.639-1.599-1.598c0,0-1.597-4.794-1.597-11.186V54.447z"/>
	<path d="M563.32,124.277c0,0-9.266,8.467-21.253,8.467c-32.119,0-36.75-18.695-36.75-41.547c0-22.851,4.631-41.543,36.75-41.543
		c9.75,0,16.94,4.631,20.776,7.988V12.897c0-0.956,0.799-1.598,1.598-1.598c0.958,0,15.978,1.598,15.978,1.598
		c0.958,0.162,1.599,0.643,1.599,1.598v102.269c0,7.991,1.598,11.827,1.598,12.785c0,0.959-0.641,1.598-1.598,1.598h-15.979
		c-0.639,0-1.279-0.639-1.597-1.598C564.279,128.429,563.32,124.277,563.32,124.277z M542.067,65.632
		c-14.698,0-17.575,11.186-17.575,25.565c0,14.381,2.877,25.566,17.575,25.566c16.3,0,20.454-10.065,20.776-25.566
		C562.844,76.817,558.367,65.632,542.067,65.632z"/>
	<path d="M632.696,151.923c19.977,0,20.774-11.348,20.774-20.776v-6.392c0,0-7.189,7.989-20.774,7.989
		c-32.119,0-36.751-18.695-36.751-41.547c0-22.851,4.632-41.543,36.751-41.543c11.983,0,21.252,8.466,21.252,8.466
		s0.961-4.153,1.12-5.271c0.319-0.962,0.958-1.598,1.599-1.598h15.978c0.959,0,1.598,0.636,1.598,1.598
		c0,0.955-1.598,4.793-1.598,12.782v65.515c0,22.528-6.391,36.754-39.948,36.754c-15.66,0-27.163-4.794-27.163-4.794
		c-0.8-0.32-1.438-0.961-1.598-1.598c0,0-1.6-12.465-1.6-12.783c0-0.961,0.637-1.597,1.6-1.597
		C604.733,147.129,619.113,151.923,632.696,151.923z M632.696,65.632c-14.7,0-17.577,11.186-17.577,25.565
		c0,14.381,2.877,25.566,17.577,25.566c16.299,0,20.774-11.186,20.774-25.566C653.149,75.699,648.995,65.632,632.696,65.632z"/>
	<path d="M706.228,99.187c1.277,10.229,5.592,17.577,21.571,17.577c12.782,0,26.364-3.196,27.164-3.196c0.961,0,1.6,0.643,1.6,1.598
		c0,0.48-1.6,12.786-1.6,12.786c-0.159,0.799-0.637,1.438-1.6,1.598c0,0-11.184,3.195-25.564,3.195
		c-34.356,0-41.548-18.695-41.548-41.547c0-22.851,7.351-41.387,39.949-41.387c22.691,0,35.315,12.626,35.315,41.387v6.392
		c0,0.8-0.8,1.598-1.757,1.598H706.228z M706.228,83.209h35.793c-0.641-8.95-4.635-17.577-15.82-17.577
		C711.021,65.632,707.346,73.141,706.228,83.209z"/>
</g>
<g>
	<path fill="#00AEEF" d="M791.137,59.493h22.692c10.339,0,17.844,1.47,22.515,4.412c4.672,2.942,7.009,7.625,7.009,14.041
		c0,4.355-1.024,7.93-3.068,10.723c-2.045,2.792-4.762,4.473-8.152,5.037v0.499c4.619,1.03,7.953,2.959,9.997,5.785
		c2.045,2.825,3.069,6.583,3.069,11.271c0,6.65-2.403,11.837-7.208,15.561s-11.328,5.585-19.573,5.585h-27.28V59.493z
		 M806.598,88.37h8.976c4.19,0,7.223-0.648,9.101-1.945s2.82-3.44,2.82-6.434c0-2.793-1.024-4.796-3.069-6.012
		c-2.045-1.213-5.278-1.818-9.698-1.818h-8.129V88.37z M806.598,100.639v19.001h10.073c4.256,0,7.397-0.814,9.427-2.444
		c2.026-1.629,3.041-4.123,3.041-7.479c0-6.052-4.322-9.077-12.967-9.077H806.598z"/>
	<path fill="#00AEEF" d="M883.798,133.404c-8.978,0-15.991-2.477-21.045-7.431c-5.056-4.954-7.581-11.97-7.581-21.047
		c0-9.343,2.334-16.564,7.006-21.67c4.671-5.104,11.13-7.654,19.376-7.654c7.88,0,14.014,2.244,18.402,6.733
		c4.39,4.487,6.583,10.688,6.583,18.602v7.381h-35.957c0.166,4.322,1.445,7.697,3.84,10.124c2.394,2.428,5.752,3.642,10.074,3.642
		c3.357,0,6.533-0.35,9.525-1.048s6.118-1.812,9.376-3.342v11.771c-2.659,1.329-5.503,2.316-8.528,2.965
		S888.152,133.404,883.798,133.404z M881.653,86.425c-3.225,0-5.752,1.021-7.581,3.065c-1.828,2.044-2.876,4.946-3.142,8.704h21.346
		c-0.067-3.758-1.047-6.66-2.942-8.704C887.438,87.445,884.878,86.425,881.653,86.425z"/>
	<path fill="#00AEEF" d="M942.397,121.285c2.66,0,5.852-0.582,9.576-1.745v11.32c-3.791,1.696-8.445,2.544-13.964,2.544
		c-6.086,0-10.516-1.539-13.292-4.614c-2.776-3.074-4.164-7.688-4.164-13.838V88.07h-7.282v-6.434l8.379-5.087l4.389-11.771h9.726
		v11.87h15.61V88.07h-15.61v26.882c0,2.161,0.606,3.757,1.82,4.787C938.798,120.771,940.402,121.285,942.397,121.285z"/>
	<path fill="#00AEEF" d="M998.653,132.406l-2.942-7.58h-0.399c-2.56,3.226-5.194,5.46-7.904,6.706
		c-2.709,1.247-6.243,1.872-10.598,1.872c-5.354,0-9.567-1.529-12.643-4.588s-4.614-7.415-4.614-13.066
		c0-5.919,2.071-10.282,6.21-13.093c4.139-2.81,10.382-4.363,18.728-4.662l9.675-0.3v-2.443c0-5.652-2.893-8.479-8.679-8.479
		c-4.454,0-9.69,1.347-15.709,4.039l-5.036-10.272c6.416-3.358,13.531-5.037,21.344-5.037c7.481,0,13.218,1.629,17.207,4.888
		c3.989,3.258,5.984,8.211,5.984,14.861v37.154H998.653z M994.165,106.573l-5.885,0.199c-4.422,0.134-7.713,0.931-9.874,2.395
		c-2.161,1.463-3.242,3.689-3.242,6.683c0,4.289,2.46,6.434,7.381,6.434c3.524,0,6.342-1.015,8.453-3.043
		c2.111-2.027,3.167-4.721,3.167-8.079V106.573z"/>
</g>
</svg>
