<?xml version="1.0" encoding="utf-8"?>
<!-- Generator: Adobe Illustrator 16.0.0, SVG Export Plug-In . SVG Version: 6.00 Build 0)  -->
<!DOCTYPE svg PUBLIC "-//W3C//DTD SVG 1.1//EN" "http://www.w3.org/Graphics/SVG/1.1/DTD/svg11.dtd">
<svg version="1.1" id="Layer_1" xmlns="http://www.w3.org/2000/svg" xmlns:xlink="http://www.w3.org/1999/xlink" x="0px" y="0px"
	 width="82px" height="34px" viewBox="0 0 82 34" enable-background="new 0 0 82 34" xml:space="preserve">
<rect x="-28.719" y="6.219" fill="#FFFFFF" width="2" height="2"/>
<rect x="-23.016" y="-0.203" fill="#FFFFFF" width="2" height="2"/>
<rect x="-23.016" y="31.8" fill="#FFFFFF" width="2" height="2"/>
<rect x="40.948" y="-84.641" fill="#C4E8FF" width="36.248" height="42.266"/>
<polygon fill="#DFF5FF" points="113.958,3.778 113.958,4.968 150.703,4.968 150.703,27.357 113.958,27.357 113.958,28.549 
	151.895,28.549 151.895,28.167 151.895,27.357 151.895,4.968 151.895,4.105 151.895,3.778 "/>
<polygon fill="#DFF5FF" points="116.396,4.891 116.396,5.975 149.838,5.975 149.838,26.352 116.396,26.352 116.396,27.436 
	150.922,27.436 150.922,27.088 150.922,26.352 150.922,5.975 150.922,5.189 150.922,4.891 "/>
<g>
	<rect x="40.938" y="54.146" fill="#FFFFFF" width="10.341" height="46.191"/>
	<rect x="56.878" y="54.146" fill="#FFFFFF" width="10.345" height="46.191"/>
	<rect x="72.822" y="54.146" fill="#FFFFFF" width="10.342" height="46.191"/>
</g>
<g>
	<rect x="45.167" y="66.814" fill="#F8FDFF" width="8.164" height="46.19"/>
	<rect x="57.75" y="66.814" fill="#F8FDFF" width="8.164" height="46.19"/>
	<rect x="70.334" y="66.814" fill="#F8FDFF" width="8.164" height="46.19"/>
</g>
<polygon fill="#F8FDFF" points="99.911,106.615 124.82,81.707 99.912,56.799 105.922,50.789 136.844,81.707 105.922,112.628 "/>
<polygon fill="#F8FDFF" points="117.244,106.615 142.154,81.707 117.244,56.799 123.255,50.789 154.176,81.707 123.255,112.628 "/>
<rect x="40.948" y="-84.641" fill="#A4D8F9" width="31.015" height="41.392"/>
<rect x="40.948" y="-84.641" fill="#DFF5FF" width="24.977" height="39.374"/>
<g>
	<path fill="#FFFFFF" d="M112.125-9.979v4.291h-6.438V0.75h-4.291v-6.438h-6.438v-4.291h6.438v-6.438h4.291v6.438H112.125z"/>
</g>
<rect x="34.824" y="-0.016" fill="#A6CEB8" width="52.682" height="34"/>
<rect x="-6.51" y="-46.016" fill="#F0FBFF" width="88.517" height="34"/>
<rect x="95.746" y="-6.035" fill="#DFF5FF" width="2.756" height="46.195"/>
<rect x="-14.458" y="-4.383" fill="#D3E5DB" width="55.406" height="42.738"/>
<rect x="161.5" y="-64.5" fill="#A6CEB8" width="523" height="101"/>
<rect x="161.5" y="37.5" fill="#D3E5DB" width="523" height="101"/>
</svg>
