<?xml version="1.0" encoding="utf-8"?>
<!-- Generator: Adobe Illustrator 16.0.4, SVG Export Plug-In . SVG Version: 6.00 Build 0)  -->
<!DOCTYPE svg PUBLIC "-//W3C//DTD SVG 1.1//EN" "http://www.w3.org/Graphics/SVG/1.1/DTD/svg11.dtd">
<svg version="1.1" id="Layer_1" xmlns="http://www.w3.org/2000/svg" xmlns:xlink="http://www.w3.org/1999/xlink" x="0px" y="0px"
	 width="2166.166px" height="2166.166px" viewBox="0 0 2166.166 2166.166" enable-background="new 0 0 2166.166 2166.166"
	 xml:space="preserve">
<path fill="#009DE0" d="M1083.073,0C484.895,0,0,484.894,0,1083.059c0,598.211,484.895,1083.107,1083.073,1083.107
	c598.182,0,1083.092-484.896,1083.092-1083.107C2166.165,484.894,1681.255,0,1083.073,0 M1557.007,1776.365H1279.21
	l-168.184-779.599h-3.135l-186.811,779.599H638.427L311.856,542h332.986l104.84,478.396c10.217,40.037,19.408,85.172,27.627,121.75
	c8.057,36.543,16.777,82.004,25.986,146.969h3.232c7.584-64.965,15.559-110.297,23.859-147.408
	c8.461-37.047,17.037-74.793,25.66-114.828L957.624,542h301.283l109.695,482.426c5.344,23.355,10.67,40.863,15.805,58.438
	c5.082,17.639,9.549,34.221,13.414,52.623c3.721,18.4,7.926,47.035,12.539,67.857c4.596,20.838,9.096,53.289,13.416,85.771h3.279
	c3.232-32.482,6.676-65.34,10.574-85.674c3.688-20.238,7.455-43.949,10.883-61.312c3.492-17.281,7.275-37.193,11.027-54.799
	c3.785-17.574,8.396-34.061,13.789-58.422L1571.657,542h304.562L1557.007,1776.365z"/>
</svg>
