<?xml version="1.0" encoding="utf-8"?>
<!-- Generator: Adobe Illustrator 16.0.0, SVG Export Plug-In . SVG Version: 6.00 Build 0)  -->
<!DOCTYPE svg PUBLIC "-//W3C//DTD SVG 1.1//EN" "http://www.w3.org/Graphics/SVG/1.1/DTD/svg11.dtd">
<svg version="1.1" id="Layer_1" xmlns="http://www.w3.org/2000/svg" xmlns:xlink="http://www.w3.org/1999/xlink" x="0px" y="0px"
	 width="2000px" height="300px" viewBox="0 0 2000 300" enable-background="new 0 0 2000 300" xml:space="preserve">
<rect x="-25" y="-25" fill="#D2C6E5" width="2050" height="350"/>
<g>
	<g>
		<path fill="#FFFFFF" d="M703.499,147.354l5.76-40.408l-16.919,40.408h-12.33l1.8-40.588l-15.029,40.588h-7.2l22.859-61.828
			c-8.91,2.97-14.309,9.99-14.309,20.25c0,4.77,1.17,5.399,1.26,6.209c-5.85,0-9.629-2.25-9.629-8.189
			c0-11.52,14.939-23.939,28.619-23.939c2.34,0,4.68,0.45,6.84,1.26l-2.07,47.428l19.799-47.428h12.959l-9.45,66.237H703.499z"/>
		<path fill="#FFFFFF" d="M765.688,102.356l-6.479,30.599c-0.27,1.17-0.36,2.07-0.36,2.88c0,2.52,1.17,3.33,3.689,3.33
			c3.51,0,5.94-3.42,7.29-7.92h3.78c-5.13,14.669-13.229,16.649-18.089,16.649c-5.13,0-8.37-2.97-8.91-8.55
			c-4.5,7.38-9.54,8.55-13.319,8.55c-5.4,0-9.629-3.24-9.629-10.8c0-1.71,0.27-3.689,0.72-5.85l6.12-28.889h12.959l-6.479,30.599
			c-0.18,0.9-0.27,1.71-0.27,2.52c0,2.07,0.72,3.69,2.7,3.69c3.51,0,5.85-3.42,7.2-7.92l6.12-28.889H765.688z"/>
		<path fill="#FFFFFF" d="M792.778,84.357l-10.35,48.598c-0.27,1.17-0.36,2.07-0.36,2.88c0,2.52,1.17,3.33,3.69,3.33
			c3.51,0,6.75-3.42,8.1-7.92h3.78c-5.13,14.669-14.04,16.649-18.899,16.649c-5.4,0-9.629-3.24-9.629-10.8
			c0-1.71,0.27-3.689,0.72-5.85l9.629-45.088L792.778,84.357z"/>
		<path fill="#FFFFFF" d="M815.998,88.137l-3.06,14.22h5.4l-0.72,3.6h-5.4l-5.76,26.999c-0.27,1.17-0.36,2.07-0.36,2.88
			c0,2.52,1.17,3.33,3.689,3.33c3.51,0,6.75-3.42,8.1-7.92h3.78c-5.13,14.669-14.04,16.649-18.899,16.649
			c-5.4,0-9.63-3.24-9.63-10.8c0-1.71,0.27-3.689,0.72-5.85l5.4-25.289h-2.97l0.72-3.6h2.97l2.7-12.419L815.998,88.137z"/>
		<path fill="#FFFFFF" d="M836.968,102.356l-6.479,30.599c-0.27,1.17-0.36,2.07-0.36,2.88c0,2.52,1.17,3.33,3.69,3.33
			c1.62,0,2.34-0.27,2.88-0.54c-0.45,6.39-5.04,9.27-9.899,9.27c-5.4,0-9.629-3.24-9.629-10.8c0-1.71,0.27-3.689,0.72-5.85
			l6.12-28.889H836.968z M832.918,83.187c3.96,0,7.2,3.24,7.2,7.2s-3.24,7.11-7.2,7.11s-7.109-3.15-7.109-7.11
			S828.958,83.187,832.918,83.187z"/>
		<path fill="#FFFFFF" d="M877.647,147.354h-12.959l13.05-61.107c-7.83,3.24-12.6,9.989-12.6,19.619c0,4.59,1.17,5.31,1.26,6.12
			c-6.209,0-9.629-2.25-9.629-8.729c0-11.97,16.559-23.399,31.589-23.399c1.26,0,2.43,0.09,3.6,0.18L877.647,147.354z"/>
		<path fill="#FFFFFF" d="M912.658,110.186c-3.24,0-5.67,3.78-7.02,8.28l-6.12,28.889h-12.959l9.54-44.998h12.959l-0.99,4.68
			c3.78-4.32,7.74-5.04,10.529-5.04c5.76,0,9.99,2.97,9.99,10.17c0,7.29-4.32,18.179-4.32,23.219c0,2.25,0.9,3.78,3.6,3.78
			c3.959,0,5.58-3.24,7.56-7.92h3.78c-5.04,14.759-11.97,16.649-16.739,16.649c-7.83,0-10.62-5.04-10.62-10.169
			c0-6.12,4.05-17.189,4.05-22.949C915.897,111.806,914.817,110.186,912.658,110.186z"/>
		<path fill="#FFFFFF" d="M973.586,131.245c-4.68,5.4-9.629,8.82-13.769,11.25c-3.78,3.96-9.54,5.4-14.129,5.4
			c-9.18,0-13.14-6.03-13.14-11.52c0-4.14,2.34-7.2,4.77-8.37c5.04-8.91,8.279-17.819,11.069-26.639l13.319-1.8
			c1.08,23.309,1.98,26.819,1.98,32.759c0,1.26-0.09,2.34-0.36,3.42c2.43-1.44,4.77-3.06,6.479-4.5H973.586z M939.748,135.655
			c-0.9,0-1.98-0.27-2.43-1.17c0,4.23,1.53,6.3,5.49,6.3c3.959,0,7.83-2.07,7.83-8.37c0-4.68-0.81-7.47-1.71-21.329
			c-1.8,5.85-4.32,11.25-7.29,17.009c1.17,0.54,2.07,1.62,2.07,3.15C943.708,133.405,942.087,135.655,939.748,135.655z"/>
		<path fill="#FFFFFF" d="M991.946,88.137l-3.06,14.22h5.4l-0.72,3.6h-5.399l-5.76,26.999c-0.27,1.17-0.36,2.07-0.36,2.88
			c0,2.52,1.17,3.33,3.69,3.33c3.51,0,6.75-3.42,8.1-7.92h3.78c-5.13,14.669-14.04,16.649-18.899,16.649
			c-5.4,0-9.629-3.24-9.629-10.8c0-1.71,0.27-3.689,0.72-5.85l5.4-25.289h-2.97l0.72-3.6h2.97l2.7-12.419L991.946,88.137z"/>
		<path fill="#FFFFFF" d="M1037.035,102.356l-6.48,30.599c-0.27,1.17-0.359,2.07-0.359,2.88c0,2.52,1.17,3.87,3.689,3.87
			c3.51,0,5.939-3.959,7.29-8.459h3.779c-5.13,14.669-13.229,16.649-18.089,16.649c-5.04,0-8.28-2.88-8.819-8.28
			c-2.79,4.14-7.021,8.28-13.41,8.28c-6.12,0-11.969-3.78-11.969-14.489c0-12.15,7.47-31.499,23.129-31.499
			c5.13,0,7.289,1.98,7.289,4.59v0.63l0.99-4.77H1037.035z M1005.986,132.145c0,6.93,2.88,7.02,4.499,7.02
			c2.61,0,6.39-2.7,7.47-7.92l4.32-20.339c0-1.08-0.811-3.419-3.69-3.419C1010.936,107.486,1005.986,123.686,1005.986,132.145z"/>
		<path fill="#FFFFFF" d="M1063.854,110.186c-3.239,0-5.669,3.78-7.02,8.28l-6.119,28.889h-12.96l9.54-44.998h12.959l-0.99,4.68
			c3.78-4.32,7.74-5.04,10.53-5.04c5.76,0,9.989,2.97,9.989,10.17c0,7.29-4.319,18.179-4.319,23.219c0,2.25,0.899,3.78,3.6,3.78
			c3.96,0,5.579-3.24,7.56-7.92h3.779c-5.039,14.759-11.969,16.649-16.739,16.649c-7.829,0-10.619-5.04-10.619-10.169
			c0-6.12,4.05-17.189,4.05-22.949C1067.094,111.806,1066.014,110.186,1063.854,110.186z"/>
		<path fill="#FFFFFF" d="M1112.812,110.006c0-2.25-0.81-3.689-2.52-3.689c-5.67,0-11.52,16.469-11.52,26.458
			c0,6.12,2.16,7.56,6.479,7.56c7.11,0,11.43-3.96,15.93-9.09h3.06c-5.13,8.28-12.779,16.649-24.749,16.649
			c-8.459,0-14.039-4.14-14.039-14.31c0-10.439,5.939-32.039,24.209-32.039c8.01,0,9.989,4.14,9.989,8.28
			c0,4.41-2.159,6.569-4.77,6.569c-0.99,0-2.07-0.36-3.149-1.08C1112.453,113.336,1112.812,111.536,1112.812,110.006z"/>
		<path fill="#FFFFFF" d="M1138.822,139.345c3.42,0,7.739-2.25,10.619-4.77c-1.89,10.259-8.369,13.319-15.569,13.319
			c-8.37,0-13.949-4.14-13.949-14.31c0-10.35,5.85-32.039,24.299-32.039c8.01,0,9.899,4.14,9.899,8.64
			c0,10.439-9.899,18.359-20.699,18.989c-0.09,0.9-0.18,1.89-0.18,2.7C1133.242,137.545,1135.672,139.345,1138.822,139.345z
			 M1144.941,106.316c-4.5,0-8.999,9.989-10.89,18.539c7.021-0.36,13.14-7.29,13.14-14.85
			C1147.191,107.756,1146.651,106.316,1144.941,106.316z"/>
		<path fill="#FFFFFF" d="M1208.84,147.354l6.93-32.668c-4.59-2.07-8.1-2.88-12.06-3.24c-6.75,14.669-11.699,31.769-11.699,41.128
			c0,2.88,0.72,4.23,1.26,5.04c-4.859,0-12.06-0.181-12.06-9.54c0-8.1,5.4-22.859,13.229-36.628c-5.58,0.36-9.359,1.62-10.529,4.68
			c0.45,0,1.17,1.53,1.17,2.79c0,2.16-2.25,3.51-5.04,3.51c-3.06,0-5.58-1.709-5.58-5.22c0-6.12,7.74-11.069,18.359-11.069
			c1.26,0,2.79,0.09,4.68,0.27c9.09-14.399,20.789-26.549,31.319-26.549c2.069,0,4.949,0.36,7.109,1.26l-14.129,66.237H1208.84z
			 M1221.8,86.247c-5.4,2.88-11.16,11.25-16.2,21.329c3.601,0.72,7.47,1.71,10.98,3.15L1221.8,86.247z"/>
		<path fill="#FFFFFF" d="M1253.57,99.026l-1.439,6.75c2.609-2.25,6.029-3.87,10.529-3.87c6.12,0,10.979,3.51,10.979,14.22
			c0,12.149-4.68,31.769-22.139,31.769c-4.5,0-6.66-1.53-7.649-3.24l-4.681,21.958l-13.589,3.24l15.029-70.827H1253.57z
			 M1261.311,115.856c0-6.93-2.88-7.47-4.5-7.47c-1.979,0-4.5,1.53-6.21,4.41l-5.31,25.199c0.36,0.99,1.35,2.07,3.42,2.07
			C1258.16,140.065,1261.311,124.315,1261.311,115.856z"/>
		<path fill="#FFFFFF" d="M1295.689,99.026l-1.439,6.75c2.609-2.25,6.029-3.87,10.529-3.87c6.12,0,10.979,3.51,10.979,14.22
			c0,12.149-4.68,31.769-22.139,31.769c-4.5,0-6.66-1.53-7.649-3.24l-4.681,21.958l-13.589,3.24l15.029-70.827H1295.689z
			 M1303.43,115.856c0-6.93-2.88-7.47-4.5-7.47c-1.979,0-4.5,1.53-6.21,4.41l-5.31,25.199c0.36,0.99,1.35,2.07,3.42,2.07
			C1300.279,140.065,1303.43,124.315,1303.43,115.856z"/>
		<path fill="#FFFFFF" d="M1344.289,99.566c1.08,23.309,1.979,26.819,1.979,32.759c0,11.699-10.619,15.569-17.999,15.569
			c-9.18,0-13.14-6.03-13.14-11.52c0-4.14,2.34-7.2,4.77-8.37c5.04-8.91,8.28-17.819,11.069-26.639L1344.289,99.566z
			 M1322.33,135.655c-0.9,0-1.98-0.27-2.431-1.17c0,4.23,1.53,6.3,5.49,6.3s7.829-2.07,7.829-8.37c0-4.68-0.81-7.47-1.71-21.329
			c-1.8,5.85-4.319,11.25-7.289,17.009c1.17,0.54,2.069,1.62,2.069,3.15C1326.289,133.405,1324.67,135.655,1322.33,135.655z"/>
	</g>
	<g>
		<path fill="#FFFFFF" d="M1055.777,193.01c0,2.49-0.326,4.741-0.977,6.751c-0.652,2.011-1.575,3.724-2.771,5.14
			s-2.648,2.51-4.357,3.283s-3.613,1.16-5.713,1.16c-2.084,0-3.977-0.387-5.677-1.16c-1.701-0.773-3.161-1.867-4.382-3.283
			s-2.166-3.129-2.832-5.14c-0.668-2.01-1.002-4.261-1.002-6.751v-3.809c0-2.49,0.334-4.744,1.002-6.762
			c0.666-2.019,1.603-3.74,2.807-5.164c1.205-1.424,2.657-2.522,4.358-3.296c1.7-0.772,3.593-1.159,5.677-1.159
			c2.1,0,4.004,0.387,5.713,1.159c1.709,0.773,3.169,1.872,4.382,3.296c1.212,1.424,2.144,3.146,2.796,5.164
			c0.65,2.018,0.977,4.271,0.977,6.762V193.01z M1052.773,189.152c0-2.1-0.244-3.995-0.732-5.688
			c-0.488-1.693-1.195-3.129-2.123-4.31c-0.928-1.18-2.068-2.091-3.418-2.734c-1.352-0.643-2.881-0.964-4.59-0.964
			c-1.678,0-3.187,0.321-4.529,0.964c-1.343,0.644-2.482,1.555-3.418,2.734c-0.936,1.181-1.652,2.616-2.148,4.31
			c-0.496,1.692-0.744,3.588-0.744,5.688v3.857c0,2.117,0.252,4.021,0.756,5.713c0.505,1.693,1.229,3.134,2.174,4.322
			c0.943,1.188,2.087,2.1,3.43,2.734s2.852,0.951,4.529,0.951c1.725,0,3.259-0.316,4.602-0.951s2.474-1.547,3.394-2.734
			c0.919-1.188,1.619-2.629,2.1-4.322c0.479-1.691,0.72-3.596,0.72-5.713V189.152z"/>
		<path fill="#FFFFFF" d="M1079.654,205.51c-0.83,1.205-1.934,2.145-3.309,2.82s-3.08,1.014-5.115,1.014
			c-1.302,0-2.482-0.184-3.539-0.55c-1.059-0.366-1.971-0.948-2.734-1.745c-0.766-0.798-1.355-1.827-1.771-3.089
			c-0.415-1.261-0.622-2.796-0.622-4.603v-16.918h2.904v16.967c0,1.416,0.163,2.597,0.488,3.541c0.326,0.943,0.766,1.701,1.318,2.27
			c0.554,0.57,1.201,0.977,1.941,1.221s1.525,0.367,2.355,0.367c1.172,0,2.205-0.131,3.102-0.391c0.895-0.261,1.668-0.627,2.318-1.1
			c0.651-0.471,1.188-1.025,1.611-1.66c0.424-0.635,0.758-1.334,1.002-2.1v-19.115h2.93v26.416h-2.832L1079.654,205.51z"/>
		<path fill="#FFFFFF" d="M1094.668,175.676v6.764h5.469v2.393h-5.469v17.602c0,0.928,0.094,1.673,0.281,2.234
			s0.439,1.001,0.757,1.318s0.684,0.529,1.099,0.635s0.85,0.158,1.307,0.158c0.439,0,0.861-0.027,1.27-0.085
			c0.406-0.057,0.772-0.11,1.098-0.159l0.123,2.393c-0.359,0.131-0.826,0.232-1.404,0.306s-1.152,0.11-1.721,0.11
			c-0.83,0-1.6-0.11-2.308-0.33s-1.314-0.598-1.819-1.135c-0.504-0.537-0.898-1.25-1.184-2.137s-0.428-1.99-0.428-3.309v-17.602
			h-4.857v-2.393h4.857v-6.764H1094.668z"/>
		<path fill="#FFFFFF" d="M1121.133,182.439l0.098,4.516c0.456-0.748,0.98-1.432,1.575-2.051c0.594-0.617,1.257-1.146,1.989-1.586
			s1.521-0.777,2.369-1.014c0.846-0.236,1.74-0.354,2.686-0.354c1.318,0,2.498,0.179,3.539,0.537
			c1.041,0.357,1.926,0.928,2.648,1.709c0.725,0.781,1.279,1.786,1.66,3.015c0.383,1.229,0.574,2.714,0.574,4.456v17.188h-2.904
			v-17.213c0-1.367-0.146-2.506-0.439-3.418c-0.293-0.91-0.709-1.643-1.246-2.197c-0.537-0.553-1.191-0.947-1.965-1.184
			s-1.633-0.354-2.576-0.354c-1.041,0-1.986,0.175-2.832,0.524c-0.846,0.351-1.596,0.817-2.246,1.403s-1.213,1.258-1.684,2.015
			c-0.473,0.757-0.848,1.534-1.123,2.331v18.092h-2.906v-26.416H1121.133z"/>
		<path fill="#FFFFFF" d="M1144.205,195.256c0-1.92,0.281-3.693,0.842-5.322c0.562-1.627,1.355-3.031,2.381-4.211
			s2.262-2.104,3.711-2.771c1.448-0.666,3.06-1,4.834-1c1.807,0,3.438,0.334,4.895,1c1.457,0.668,2.698,1.592,3.724,2.771
			s1.814,2.584,2.368,4.211c0.553,1.629,0.83,3.402,0.83,5.322v0.807c0,1.92-0.277,3.694-0.83,5.322
			c-0.554,1.627-1.343,3.031-2.368,4.211s-2.263,2.1-3.711,2.759c-1.449,0.659-3.068,0.989-4.858,0.989
			c-1.791,0-3.41-0.33-4.858-0.989c-1.449-0.659-2.689-1.579-3.724-2.759c-1.033-1.18-1.83-2.584-2.393-4.211
			c-0.561-1.628-0.842-3.402-0.842-5.322V195.256z M1147.135,196.062c0,1.448,0.195,2.828,0.586,4.138
			c0.391,1.311,0.96,2.458,1.709,3.442c0.748,0.984,1.676,1.77,2.783,2.355c1.106,0.586,2.376,0.879,3.809,0.879
			c1.432,0,2.697-0.293,3.797-0.879c1.098-0.586,2.021-1.371,2.771-2.355c0.748-0.984,1.318-2.132,1.709-3.442
			c0.391-1.31,0.586-2.689,0.586-4.138v-0.807c0-1.416-0.195-2.778-0.586-4.089c-0.391-1.31-0.961-2.462-1.709-3.454
			c-0.749-0.993-1.681-1.787-2.796-2.381c-1.114-0.594-2.389-0.891-3.82-0.891c-1.416,0-2.674,0.297-3.771,0.891
			c-1.1,0.594-2.023,1.388-2.771,2.381c-0.749,0.992-1.318,2.145-1.709,3.454c-0.391,1.311-0.586,2.673-0.586,4.089V196.062z"/>
		<path fill="#FFFFFF" d="M1180.143,202.775l0.439,2.271l0.586-2.393l6.348-20.215h2.49l6.274,20.043l0.684,2.783l0.562-2.562
			l5.42-20.264h3.027l-7.69,26.416h-2.49l-6.787-20.947l-0.317-1.441l-0.317,1.465l-6.665,20.924h-2.49l-7.666-26.416h3.003
			L1180.143,202.775z"/>
		<path fill="#FFFFFF" d="M1211.441,207.146c0-0.554,0.179-1.021,0.537-1.404c0.357-0.383,0.846-0.574,1.465-0.574
			c0.618,0,1.11,0.191,1.478,0.574c0.365,0.383,0.549,0.851,0.549,1.404c0,0.537-0.184,0.988-0.549,1.354
			c-0.367,0.366-0.859,0.55-1.478,0.55c-0.619,0-1.107-0.184-1.465-0.55C1211.62,208.135,1211.441,207.684,1211.441,207.146z
			 M1214.64,198.967h-2.71l-0.146-25.658h3.027L1214.64,198.967z"/>
	</g>
</g>
</svg>
