<?xml version="1.0" encoding="utf-8"?>
<!-- Generator: Adobe Illustrator 16.0.0, SVG Export Plug-In . SVG Version: 6.00 Build 0)  -->
<!DOCTYPE svg PUBLIC "-//W3C//DTD SVG 1.1//EN" "http://www.w3.org/Graphics/SVG/1.1/DTD/svg11.dtd">
<svg version="1.1" id="Layer_1" xmlns="http://www.w3.org/2000/svg" xmlns:xlink="http://www.w3.org/1999/xlink" x="0px" y="0px"
	 width="595.28px" height="841.89px" viewBox="0 0 595.28 841.89" enable-background="new 0 0 595.28 841.89" xml:space="preserve">
<polygon opacity="0.8" fill="#B3D0E9" points="526.281,425.527 471.081,462.979 411.049,433.899 406.216,367.37 461.414,329.921 
	521.446,358.998 "/>
<g opacity="0.8">
	<polygon fill="#7AB997" points="458.686,352.458 442.437,394.214 398.15,401.019 370.114,366.069 386.363,324.314 430.648,317.51 	
		"/>
</g>
<polygon opacity="0.8" fill="#EEB2A8" points="187.929,454.648 132.729,492.099 72.697,463.021 67.864,396.491 123.062,359.041 
	183.094,388.119 "/>
<polygon opacity="0.8" fill="#FEE0A1" points="185.603,514.979 137.724,524.38 105.644,487.615 121.443,441.451 169.321,432.051 
	201.401,468.815 "/>
<g>
	<text transform="matrix(1 0 0 1 320.2236 446.9316)" font-family="'Roboto-LightItalic'" font-size="20.8041">Out now!</text>
	<text transform="matrix(1 0 0 1 147.7236 425.2617)" font-family="'Lobster1.4'" font-size="41.6082">Multi Instance Apps</text>
</g>
<g opacity="0.8">
	<polygon fill="#7AB997" points="94.823,373.187 88.901,417.6 47.477,434.676 11.977,407.341 17.899,362.929 59.322,345.853 	"/>
</g>
<polygon opacity="0.8" fill="#EEB2A8" points="493.405,442.637 510.403,493.241 475.077,533.265 422.754,522.684 405.754,472.082 
	441.081,432.058 "/>
<polygon opacity="0.8" fill="#FEE0A1" points="579.807,475.977 552.335,481.37 533.929,460.275 542.994,433.788 570.465,428.395 
	588.871,449.489 "/>
<polygon opacity="0.8" fill="#B3D0E9" points="59.186,526.839 39,540.533 17.049,529.9 15.282,505.572 35.466,491.879 
	57.417,502.511 "/>
</svg>
